<?xml version="1.0" encoding="utf-8"?>
<!-- Generator: Adobe Illustrator 24.2.1, SVG Export Plug-In . SVG Version: 6.00 Build 0)  -->
<svg version="1.1" id="Layer_1" xmlns="http://www.w3.org/2000/svg" xmlns:xlink="http://www.w3.org/1999/xlink" x="0px" y="0px"
	 viewBox="0 0 402.8 254.3" style="enable-background:new 0 0 402.8 254.3;" xml:space="preserve">
<style type="text/css">
	.st0{fill:#010E28;}
</style>
<g>
	<path class="st0" d="M363.9,156c-27.6-6.4-57.3-16.9-78.8-38.4c-21.5-21.5-32-51.2-38.4-78.8C241.6,16.1,221.5,0,198.2,0
		c-23.3,0-43.4,16.1-48.5,38.8c-6,26.8,10.9,53.4,37.6,59.4c27.6,6.4,57.3,16.9,78.8,38.4s32,51.2,38.4,78.8
		c4.2,18.8,18.9,33.4,37.6,37.6c26.8,6,53.4-10.9,59.4-37.6C407.6,188.6,390.7,162,363.9,156z"/>
	<path class="st0" d="M197.8,155.1c-27.4,0-49.6,22.2-49.6,49.6c0,27.4,22.2,49.6,49.6,49.6c27.4,0,49.6-22.2,49.6-49.6
		c0-13.2-5.2-25.8-14.5-35.1C223.6,160.3,211,155.1,197.8,155.1z"/>
	<path class="st0" d="M49.6,155.1C22.2,155.1,0,177.3,0,204.7c0,27.4,22.2,49.6,49.6,49.6c27.4,0,49.6-22.2,49.6-49.6
		c0-13.2-5.2-25.8-14.5-35.1C75.4,160.3,62.8,155.1,49.6,155.1z"/>
</g>
</svg>
